<?xml version="1.0" encoding="utf-8"?>
<!-- Generator: Adobe Illustrator 13.0.0, SVG Export Plug-In . SVG Version: 6.00 Build 14948)  -->
<!DOCTYPE svg PUBLIC "-//W3C//DTD SVG 1.1//EN" "http://www.w3.org/Graphics/SVG/1.1/DTD/svg11.dtd">
<svg version="1.1" id="Layer_1" xmlns="http://www.w3.org/2000/svg" xmlns:xlink="http://www.w3.org/1999/xlink" x="0px" y="0px"
	 width="159px" height="30.021px" viewBox="0 0 159 30.021" enable-background="new 0 0 159 30.021" xml:space="preserve">
<g>
	<g>
		<path fill="#646464" d="M128.221,4.332c-2.107,6.545-4.164,13.226-6.295,19.743c-0.064,0.197-0.152,0.403-0.146,0.611
			c7.893,0,15.984,0,23.932,0c0.557,0,1.125,0.062,1.566-0.049c1.148-0.281,1.424-1.44,1.766-2.549
			c0.135-0.429,0.484-1.074,0.316-1.543c-0.164-0.461-1.025-0.416-1.859-0.416c-1.553,0-3.002,0-4.604,0
			c-0.807,0-1.863,0.194-1.836-0.466c0.016-0.369,0.289-0.417,0.809-0.417c2.016,0,4.066,0,6,0c0.826,0,1.643,0.072,2.402,0
			c1.42-0.133,1.689-1.434,2.08-2.62c0.121-0.363,0.42-0.97,0.195-1.396c-0.256-0.486-1.398-0.368-2.275-0.368
			c-2.283,0-4.434,0-6.664,0c-0.539,0-0.896-0.044-0.881-0.466c0.016-0.387,0.402-0.417,0.955-0.417c2.453,0,4.646,0,6.979,0
			c0.914,0,2.072,0.083,2.719-0.073c0.578-0.141,1.082-0.549,1.301-1.004c0.172-0.365,0.221-0.857,0.344-1.349
			c0.045-0.186,0.109-0.427,0.17-0.661c0.059-0.229,0.182-0.488,0.123-0.733c-0.146-0.628-1.637-0.563-2.4-0.563
			c-2.543,0-4.412,0-6.93,0c-0.59,0-1.053,0.038-1.055-0.44c0-0.398,0.32-0.441,0.855-0.441c2.248,0,3.799,0,6,0
			c0.836,0,1.943,0.092,2.498-0.122c0.904-0.35,1.01-1.25,1.322-2.229c0.137-0.423,0.531-1.084,0.344-1.617
			c-0.197-0.553-1.447-0.417-2.277-0.417c-2.701,0-5.232,0-7.861,0c0.285,0.733,0.016,1.469-0.223,2.181
			c-0.135,0.407-0.238,0.849-0.391,1.199c-0.439,1.016-1.207,1.693-2.354,1.862c-0.937,2.944-1.834,5.732-2.769,8.671
			c-0.32,1.006-0.541,2.049-1.127,2.695c-0.313,0.349-0.699,0.591-1.152,0.759c-0.487,0.183-1.024,0.195-1.713,0.195
			c-2.532,0-5.071,0-7.644,0c-1.453,0-2.5,0.085-2.892-0.933c-0.231-0.604-0.03-1.3,0.146-1.86c0.563-1.768,1.07-3.455,1.645-5.119
			c4.063-0.027,5.789-2.394,6.979-5.291c1.977,0,4.359,0,6.441,0c0.736,0,1.564,0.035,2.156-0.074
			c1.244-0.231,1.48-1.34,1.836-2.474c0.115-0.356,0.43-0.999,0.246-1.396c-0.125-0.271-0.422-0.417-0.76-0.424L128.221,4.332z"/>
		<path fill="#646464" d="M120.137,4.332c2.385,0,4.771,0,7.152,0c-2.154,6.795-4.322,13.576-6.49,20.354c-2.393,0-4.785,0-7.178,0
			C115.801,17.909,117.934,11.085,120.137,4.332z"/>
		<path fill="#646464" d="M134.932,9.598c2.318,0,4.639,0,6.957,0c-0.928,3.082-2.004,6.144-2.963,9.26
			c-0.299,0.968-0.504,1.614-1.396,1.981c-0.416,0.174-0.881,0.174-1.471,0.174c-2.74,0-5.373,0-8.205,0
			c-0.527,0-1.188,0.027-1.396-0.222c-0.31-0.366-0.004-1.175,0.123-1.567c0.474-1.475,0.931-2.918,1.396-4.358
			C131.773,14.589,133.621,12.362,134.932,9.598z"/>
	</g>
	<g>
		<path fill="#646464" d="M14.082,4.324c-0.557,0.955-0.834,1.814-1.064,2.739L9.269,22.093h7.706c0.892,0,2.213-0.063,3.272-0.478
			l-1.28,3.089H2.248c0.556-0.955,0.835-1.814,1.065-2.739L7.03,7.061c0.23-0.923,0.381-1.783,0.3-2.738L14.082,4.324L14.082,4.324z
			"/>
		<path fill="#646464" d="M27.755,18.59l-0.668,2.677c-0.198,0.795-0.047,1.082,0.686,1.082h9.649c0.478,0,1.099-0.063,1.798-0.19
			l-1.081,2.548H24.446c-2.547,0-3.447-1.242-2.757-4.013l1.732-6.942c0.689-2.771,2.21-4.013,4.757-4.013H38.56
			c2.548,0,3.448,1.241,2.757,4.013l-1.207,4.84L27.755,18.59L27.755,18.59z M35.157,16.234l0.763-3.059
			c0.199-0.796,0.047-1.083-0.686-1.083H30.33c-0.732,0-1.027,0.287-1.225,1.083l-0.762,3.059H35.157z"/>
		<path fill="#646464" d="M49.454,9.737L49.2,11.265h0.064c0.31-0.604,0.627-0.986,0.938-1.21c0.342-0.224,0.717-0.318,1.162-0.318
			h7.643c1.561,0,1.847,0.255,1.911,1.528h-0.063c0.771-1.179,1.272-1.528,2.196-1.528h6.336c2.549,0,3.449,1.241,2.757,4.013
			l-1.89,7.58c-0.444,1.783-0.54,2.675-0.523,3.375h-6.179c0.366-0.7,0.715-1.592,1.161-3.375l2.033-8.152
			c0.199-0.797,0.047-1.083-0.686-1.083h-4.235c-0.732,0-1.027,0.286-1.225,1.083l-2.033,8.152c-0.445,1.783-0.54,2.675-0.524,3.375
			h-6.178c0.366-0.7,0.715-1.592,1.161-3.375l2.033-8.152c0.199-0.797,0.048-1.083-0.686-1.083h-4.235
			c-0.732,0-1.027,0.286-1.225,1.083L46.88,21.33c-0.444,1.783-0.54,2.675-0.523,3.375H40.18c0.365-0.7,0.715-1.592,1.16-3.375
			l2.05-8.216c0.445-1.784,0.539-2.675,0.523-3.376L49.454,9.737L49.454,9.737z"/>
		<path fill="#646464" d="M84.195,24.704l0.254-1.526h-0.064c-0.676,1.176-1.178,1.526-2.101,1.526h-6.816
			c-2.548,0-3.448-1.242-2.758-4.013l1.891-7.579c0.444-1.784,0.539-2.676,0.522-3.376h5.863l-2.878,11.528
			c-0.197,0.795-0.047,1.082,0.687,1.082h4.715c0.732,0,1.025-0.287,1.225-1.082l2.033-8.152c0.445-1.784,0.539-2.676,0.523-3.376
			h5.859L90.26,21.329c-0.445,1.783-0.541,2.675-0.523,3.375H84.195z"/>
		<path fill="#646464" d="M109.043,21.361c-0.557,2.229-2.107,3.344-4.656,3.344H91.648l0.229-2.58
			c0.816,0.287,1.504,0.353,3.543,0.353h6.75c0.73,0,1.273-0.383,1.428-0.987l0.205-0.828c0.148-0.604-0.199-0.986-0.934-0.986
			h-7.037c-2.293,0-3.082-1.306-2.395-4.076l0.453-1.813c0.691-2.771,2.123-4.044,4.416-4.044h13.217l-0.229,2.58
			c-0.818-0.287-1.504-0.351-3.541-0.351h-7.008c-0.668,0-1.061,0.285-1.209,0.892l-0.176,0.7c-0.15,0.604,0.096,0.893,0.766,0.893
			h6.814c2.549,0,3.543,1.114,2.986,3.344L109.043,21.361z"/>
	</g>
</g>
</svg>
